HIERARCHY
ROOT newVegas:Hips
{
	OFFSET 0.000000 96.479958 0.000000
	CHANNELS 6 Xposition Yposition Zposition Xrotation Yrotation Zrotation
	JOINT newVegas:Pelvis
	{
		OFFSET 0.000000 0.000000 0.000000
		CHANNELS 3 Xrotation Yrotation Zrotation
		JOINT newVegas:LeftUpLeg
		{
			OFFSET 18.735201 -5.666702 -4.541200
			CHANNELS 3 Xrotation Yrotation Zrotation
			JOINT newVegas:LeftLeg
			{
				OFFSET -0.021200 -31.938179 0.493100
				CHANNELS 3 Xrotation Yrotation Zrotation
				JOINT newVegas:LeftFoot
				{
					OFFSET 0.021200 -31.938179 -4.336299
					CHANNELS 3 Xrotation Yrotation Zrotation
					JOINT newVegas:LeftToeBase
					{
						OFFSET 0.943001 -26.722000 15.023500
						CHANNELS 3 Xrotation Yrotation Zrotation
						End Site
						{
							OFFSET 0.000000 30.670183 0.000000
						}
					}
				}
				JOINT newVegas:Left_PantLeg
				{
					OFFSET 0.663870 -9.044666 -1.108900
					CHANNELS 3 Xrotation Yrotation Zrotation
					End Site
					{
						OFFSET 1.415995 20.635357 0.000000
					}
				}
			}
		}
		JOINT newVegas:RightUpLeg
		{
			OFFSET -18.735201 -5.666702 -4.541200
			CHANNELS 3 Xrotation Yrotation Zrotation
			JOINT newVegas:RightLeg
			{
				OFFSET 0.018946 -31.938133 0.493100
				CHANNELS 3 Xrotation Yrotation Zrotation
				JOINT newVegas:RightFoot
				{
					OFFSET -0.018946 -31.938126 -4.336299
					CHANNELS 3 Xrotation Yrotation Zrotation
					JOINT newVegas:RightToeBase
					{
						OFFSET -0.943001 -26.722004 15.023500
						CHANNELS 3 Xrotation Yrotation Zrotation
						End Site
						{
							OFFSET 0.000000 30.670187 0.000000
						}
					}
				}
				JOINT newVegas:Right_PantLeg
				{
					OFFSET -0.661674 -9.044716 -1.108900
					CHANNELS 3 Xrotation Yrotation Zrotation
					End Site
					{
						OFFSET -1.415958 20.635269 0.000000
					}
				}
			}
		}
	}
	JOINT newVegas:Spine
	{
		OFFSET 0.000000 10.199997 -0.299500
		CHANNELS 3 Xrotation Yrotation Zrotation
		JOINT newVegas:Spine1
		{
			OFFSET 0.000000 11.900002 -1.516600
			CHANNELS 3 Xrotation Yrotation Zrotation
			JOINT newVegas:Spine2
			{
				OFFSET 0.000000 13.600006 -2.842500
				CHANNELS 3 Xrotation Yrotation Zrotation
				JOINT newVegas:Neck
				{
					OFFSET 0.000000 9.624100 -2.890100
					CHANNELS 3 Xrotation Yrotation Zrotation
					JOINT newVegas:Head
					{
						OFFSET 0.000000 14.068802 -1.351900
						CHANNELS 3 Xrotation Yrotation Zrotation
						JOINT newVegas:Hair_Back
						{
							OFFSET 0.000000 3.231903 -17.524799
							CHANNELS 3 Xrotation Yrotation Zrotation
							End Site
							{
								OFFSET 0.000000 19.849884 0.000000
							}
						}
						JOINT newVegas:Hair_Front
						{
							OFFSET 0.000000 31.260406 4.573800
							CHANNELS 3 Xrotation Yrotation Zrotation
							JOINT newVegas:Hair_Front1
							{
								OFFSET 0.000000 2.284103 11.993300
								CHANNELS 3 Xrotation Yrotation Zrotation
								JOINT newVegas:Hair_Front2
								{
									OFFSET 0.000000 2.284103 11.993300
									CHANNELS 3 Xrotation Yrotation Zrotation
									End Site
									{
										OFFSET 0.000000 12.208862 0.000000
									}
								}
							}
						}
						JOINT newVegas:Jowel
						{
							OFFSET 0.000000 -7.458206 6.864100
							CHANNELS 3 Xrotation Yrotation Zrotation
							End Site
							{
								OFFSET 0.000000 19.849884 0.000000
							}
						}
					}
				}
				JOINT newVegas:LeftShoulder
				{
					OFFSET 15.263000 10.923401 -0.547700
					CHANNELS 3 Xrotation Yrotation Zrotation
					JOINT newVegas:LeftArm
					{
						OFFSET 25.438599 -2.830597 -13.032500
						CHANNELS 3 Xrotation Yrotation Zrotation
						JOINT newVegas:LeftForeArm
						{
							OFFSET 29.960503 0.000000 0.000000
							CHANNELS 3 Xrotation Yrotation Zrotation
							JOINT newVegas:LeftHand
							{
								OFFSET 27.849251 0.000000 0.000000
								CHANNELS 3 Xrotation Yrotation Zrotation
								JOINT newVegas:LeftHandThumb1
								{
									OFFSET 4.487587 -3.305161 6.305391
									CHANNELS 3 Xrotation Yrotation Zrotation
									JOINT newVegas:LeftHandThumb2
									{
										OFFSET 5.480453 -3.164139 3.164143
										CHANNELS 3 Xrotation Yrotation Zrotation
										JOINT newVegas:LeftHandThumb3
										{
											OFFSET 5.159721 -2.978973 2.978967
											CHANNELS 3 Xrotation Yrotation Zrotation
											End Site
											{
												OFFSET 2.494507 5.926697 1.738678
											}
										}
									}
								}
								JOINT newVegas:LeftHandIndex1
								{
									OFFSET 18.578728 -0.527832 5.208049
									CHANNELS 3 Xrotation Yrotation Zrotation
									JOINT newVegas:LeftHandIndex2
									{
										OFFSET 3.192009 0.000000 0.000000
										CHANNELS 3 Xrotation Yrotation Zrotation
										JOINT newVegas:LeftHandIndex3
										{
											OFFSET 3.835129 0.000000 0.000000
											CHANNELS 3 Xrotation Yrotation Zrotation
											End Site
											{
												OFFSET -0.034599 3.816971 0.371180
											}
										}
									}
								}
								JOINT newVegas:LeftHandMiddle1
								{
									OFFSET 18.476105 0.000000 0.000000
									CHANNELS 3 Xrotation Yrotation Zrotation
									JOINT newVegas:LeftHandMiddle2
									{
										OFFSET 3.324875 0.000000 0.000000
										CHANNELS 3 Xrotation Yrotation Zrotation
										JOINT newVegas:LeftHandMiddle3
										{
											OFFSET 4.596550 0.000000 0.000000
											CHANNELS 3 Xrotation Yrotation Zrotation
											End Site
											{
												OFFSET 0.057701 4.578827 0.399218
											}
										}
									}
								}
								JOINT newVegas:LeftHandRing1
								{
									OFFSET 17.732719 0.121887 -4.201567
									CHANNELS 3 Xrotation Yrotation Zrotation
									JOINT newVegas:LeftHandRing2
									{
										OFFSET 2.733170 0.000000 0.000000
										CHANNELS 3 Xrotation Yrotation Zrotation
										JOINT newVegas:LeftHandRing3
										{
											OFFSET 3.178268 0.000000 0.000000
											CHANNELS 3 Xrotation Yrotation Zrotation
											End Site
											{
												OFFSET 0.119102 3.170624 0.185394
											}
										}
									}
								}
								JOINT newVegas:LeftHandPinky1
								{
									OFFSET 15.989624 -0.606689 -7.535461
									CHANNELS 3 Xrotation Yrotation Zrotation
									JOINT newVegas:LeftHandPinky2
									{
										OFFSET 2.538986 0.000000 0.000000
										CHANNELS 3 Xrotation Yrotation Zrotation
										JOINT newVegas:LeftHandPinky3
										{
											OFFSET 2.593102 0.000000 0.000000
											CHANNELS 3 Xrotation Yrotation Zrotation
											End Site
											{
												OFFSET -0.150902 2.584198 0.152708
											}
										}
									}
								}
							}
							JOINT newVegas:Left_Sleeve
							{
								OFFSET 0.267448 -0.649796 0.577675
								CHANNELS 3 Xrotation Yrotation Zrotation
								End Site
								{
									OFFSET 0.000000 15.991241 0.000000
								}
							}
							JOINT newVegas:Left_CapeC
							{
								OFFSET 15.715958 -8.608795 -6.935905
								CHANNELS 3 Xrotation Yrotation Zrotation
								JOINT newVegas:Left_CapeC1
								{
									OFFSET 0.000000 -8.688499 0.000000
									CHANNELS 3 Xrotation Yrotation Zrotation
									End Site
									{
										OFFSET 0.000000 8.688499 0.000000
									}
								}
							}
						}
						JOINT newVegas:Left_CapeB
						{
							OFFSET 26.118385 -8.608795 -7.079235
							CHANNELS 3 Xrotation Yrotation Zrotation
							JOINT newVegas:Left_CapeB1
							{
								OFFSET 0.000000 -8.688499 0.000000
								CHANNELS 3 Xrotation Yrotation Zrotation
								End Site
								{
									OFFSET 0.000000 8.688499 0.000000
								}
							}
						}
						JOINT newVegas:Left_CapeA
						{
							OFFSET 5.115639 -8.608795 -10.395809
							CHANNELS 3 Xrotation Yrotation Zrotation
							JOINT newVegas:Left_CapeA1
							{
								OFFSET 0.000000 -8.688499 0.000000
								CHANNELS 3 Xrotation Yrotation Zrotation
								End Site
								{
									OFFSET 0.000000 8.688499 0.000000
								}
							}
						}
					}
				}
				JOINT newVegas:RightShoulder
				{
					OFFSET -15.263000 10.923401 -0.547700
					CHANNELS 3 Xrotation Yrotation Zrotation
					JOINT newVegas:RightArm
					{
						OFFSET -25.438599 -2.830597 -13.032500
						CHANNELS 3 Xrotation Yrotation Zrotation
						JOINT newVegas:RightForeArm
						{
							OFFSET -29.960503 0.000000 0.000000
							CHANNELS 3 Xrotation Yrotation Zrotation
							JOINT newVegas:RightHand
							{
								OFFSET -27.849251 0.000000 0.000000
								CHANNELS 3 Xrotation Yrotation Zrotation
								JOINT newVegas:RightHandThumb1
								{
									OFFSET -4.487587 -3.305161 6.305391
									CHANNELS 3 Xrotation Yrotation Zrotation
									JOINT newVegas:RightHandThumb2
									{
										OFFSET -5.480453 -3.164139 3.164143
										CHANNELS 3 Xrotation Yrotation Zrotation
										JOINT newVegas:RightHandThumb3
										{
											OFFSET -5.159721 -2.978973 2.978967
											CHANNELS 3 Xrotation Yrotation Zrotation
											End Site
											{
												OFFSET -2.494507 5.926697 1.738678
											}
										}
									}
								}
								JOINT newVegas:RightHandIndex1
								{
									OFFSET -18.578728 -0.527832 5.208049
									CHANNELS 3 Xrotation Yrotation Zrotation
									JOINT newVegas:RightHandIndex2
									{
										OFFSET -3.192009 0.000000 0.000000
										CHANNELS 3 Xrotation Yrotation Zrotation
										JOINT newVegas:RightHandIndex3
										{
											OFFSET -3.835129 0.000000 0.000000
											CHANNELS 3 Xrotation Yrotation Zrotation
											End Site
											{
												OFFSET 0.034599 3.816971 0.371180
											}
										}
									}
								}
								JOINT newVegas:RightHandMiddle1
								{
									OFFSET -18.476105 0.000000 0.000000
									CHANNELS 3 Xrotation Yrotation Zrotation
									JOINT newVegas:RightHandMiddle2
									{
										OFFSET -3.324875 0.000000 0.000000
										CHANNELS 3 Xrotation Yrotation Zrotation
										JOINT newVegas:RightHandMiddle3
										{
											OFFSET -4.596550 0.000000 0.000000
											CHANNELS 3 Xrotation Yrotation Zrotation
											End Site
											{
												OFFSET -0.057701 4.578827 0.399218
											}
										}
									}
								}
								JOINT newVegas:RightHandRing1
								{
									OFFSET -17.732719 0.121887 -4.201567
									CHANNELS 3 Xrotation Yrotation Zrotation
									JOINT newVegas:RightHandRing2
									{
										OFFSET -2.733170 0.000000 0.000000
										CHANNELS 3 Xrotation Yrotation Zrotation
										JOINT newVegas:RightHandRing3
										{
											OFFSET -3.178268 0.000000 0.000000
											CHANNELS 3 Xrotation Yrotation Zrotation
											End Site
											{
												OFFSET -0.119102 3.170624 0.185394
											}
										}
									}
								}
								JOINT newVegas:RightHandPinky1
								{
									OFFSET -15.989624 -0.606689 -7.535461
									CHANNELS 3 Xrotation Yrotation Zrotation
									JOINT newVegas:RightHandPinky2
									{
										OFFSET -2.538986 0.000000 0.000000
										CHANNELS 3 Xrotation Yrotation Zrotation
										JOINT newVegas:RightHandPinky3
										{
											OFFSET -2.593102 0.000000 0.000000
											CHANNELS 3 Xrotation Yrotation Zrotation
											End Site
											{
												OFFSET 0.150902 2.584198 0.152708
											}
										}
									}
								}
							}
							JOINT newVegas:Right_CapeC
							{
								OFFSET -15.715958 -8.608795 -6.935905
								CHANNELS 3 Xrotation Yrotation Zrotation
								JOINT newVegas:Right_CapeC1
								{
									OFFSET 0.000000 -8.688499 0.000000
									CHANNELS 3 Xrotation Yrotation Zrotation
									End Site
									{
										OFFSET 0.000000 8.688499 0.000000
									}
								}
							}
							JOINT newVegas:Right_Sleeve
							{
								OFFSET -0.267448 -0.649994 0.577675
								CHANNELS 3 Xrotation Yrotation Zrotation
								End Site
								{
									OFFSET 0.000000 15.991302 0.000000
								}
							}
						}
						JOINT newVegas:Right_CapeA
						{
							OFFSET -5.115540 -8.608795 -10.395824
							CHANNELS 3 Xrotation Yrotation Zrotation
							JOINT newVegas:Right_CapeA1
							{
								OFFSET 0.000000 -8.688499 0.000000
								CHANNELS 3 Xrotation Yrotation Zrotation
								End Site
								{
									OFFSET 0.000000 8.688499 0.000000
								}
							}
						}
						JOINT newVegas:Right_CapeB
						{
							OFFSET -26.118187 -8.608795 -7.079266
							CHANNELS 3 Xrotation Yrotation Zrotation
							JOINT newVegas:Right_CapeB1
							{
								OFFSET 0.000000 -8.688499 0.000000
								CHANNELS 3 Xrotation Yrotation Zrotation
								End Site
								{
									OFFSET 0.000000 8.688499 0.000000
								}
							}
						}
					}
				}
				JOINT newVegas:Left_Collar
				{
					OFFSET 18.625099 8.655502 8.828100
					CHANNELS 3 Xrotation Yrotation Zrotation
					JOINT newVegas:Left_Collar1
					{
						OFFSET 14.783401 10.540405 -1.259500
						CHANNELS 3 Xrotation Yrotation Zrotation
						End Site
						{
							OFFSET 0.000000 18.199875 0.000000
						}
					}
				}
				JOINT newVegas:Collar_Back
				{
					OFFSET 0.000000 15.630707 -20.132601
					CHANNELS 3 Xrotation Yrotation Zrotation
					End Site
					{
						OFFSET 0.000000 22.523010 0.000000
					}
				}
				JOINT newVegas:Left_Peck
				{
					OFFSET 17.239599 -5.132599 25.482599
					CHANNELS 3 Xrotation Yrotation Zrotation
					End Site
					{
						OFFSET 0.000000 22.523010 0.000000
					}
				}
				JOINT newVegas:Right_Peck
				{
					OFFSET -17.239599 -5.132202 25.482599
					CHANNELS 3 Xrotation Yrotation Zrotation
					End Site
					{
						OFFSET 0.000000 22.523010 0.000000
					}
				}
				JOINT newVegas:Right_Collar
				{
					OFFSET -18.625099 8.655792 8.828100
					CHANNELS 3 Xrotation Yrotation Zrotation
					JOINT newVegas:Right_Collar1
					{
						OFFSET -14.783401 10.539993 -1.259500
						CHANNELS 3 Xrotation Yrotation Zrotation
						End Site
						{
							OFFSET 0.000000 18.199631 0.000000
						}
					}
				}
			}
		}
		JOINT newVegas:Belly
		{
			OFFSET 0.000000 -6.540398 9.014299
			CHANNELS 3 Xrotation Yrotation Zrotation
			End Site
			{
				OFFSET 0.000000 11.566666 0.000000
			}
		}
	}
	JOINT newVegas:ElvisFacialAnim_Joint
	{
		OFFSET 1.000000 -95.330101 -8.825800
		CHANNELS 3 Xrotation Yrotation Zrotation
		End Site
		{
			OFFSET 0.000000 35.315800 0.000000
		}
	}
}
MOTION
Frames: 4
Frame Time: 0.033333
6.678631 90.165291 4.208755 -10.637936 -28.065830 -0.586957 0.000000 0.000000 -0.000001 -16.301076 18.509177 11.298653 43.846410 9.020677 2.247287 -16.098109 3.924764 -11.431181 0.000000 -0.000000 0.000000 0.000001 0.000001 0.000001 -36.660310 -11.594086 -23.105193 58.863902 1.260916 -9.807128 -6.249626 -2.345968 18.466914 0.000001 0.000004 -0.000000 -0.000000 0.000001 -0.000000 15.730984 5.076805 3.281574 6.330635 1.089060 -0.457460 6.344751 1.026698 -0.413554 -4.309669 1.792247 0.222426 -4.309680 1.792255 0.222431 0.000000 -0.000001 0.000001 -4.309744 1.792256 0.222434 -4.309533 1.792248 0.222423 0.000000 0.000000 -0.000001 0.000000 -0.000001 0.000001 3.004234 -5.057800 0.774764 -40.949487 -36.563826 -77.622067 0.000013 -52.513274 0.000006 -64.181020 -16.907500 45.938295 -1.540041 3.690189 6.142352 3.939060 7.948700 0.746828 -0.000000 0.000001 -0.000003 2.003742 4.859889 -44.792903 2.003741 4.859878 -44.792900 -0.000002 0.000000 0.000000 2.002371 4.858486 -44.776791 2.005098 4.861232 -44.808995 0.000003 -0.000001 -0.000000 2.003749 4.859856 -44.792896 2.003740 4.859865 -44.792903 0.000001 -0.000002 -0.000001 4.872313 7.742532 -44.597471 2.021898 0.790102 -45.160763 -0.000000 -0.000003 -0.000001 0.000001 0.000000 0.000003 0.000001 0.000000 0.000003 0.000001 0.000000 0.000003 -0.000001 0.000001 -0.000001 -0.000000 0.000000 -0.000001 -0.000001 0.000001 -0.000001 -0.000002 0.000002 -0.000002 1.876167 2.708027 -0.482646 -36.380764 66.037172 65.027854 0.000005 56.057712 -0.000015 -45.467231 1.986693 -28.540231 -1.849246 -3.581799 -6.586138 4.637189 -8.634129 -0.225408 0.000003 -0.000001 0.000001 4.561472 -6.527315 69.863881 4.561456 -6.527314 69.863894 0.000001 0.000001 -0.000000 4.561464 -6.527292 69.863894 4.561450 -6.527310 69.863888 0.000002 0.000000 -0.000003 4.561460 -6.527279 69.863881 4.561463 -6.527309 69.863894 0.000001 0.000001 -0.000001 4.561473 -6.527324 69.863881 4.561444 -6.527300 69.863894 -0.000000 0.000001 0.000002 -0.000001 0.000001 -0.000000 0.000001 -0.000001 -0.000003 -0.000001 0.000001 0.000001 -0.000001 0.000002 -0.000002 -0.000001 0.000003 -0.000001 -0.000001 0.000002 -0.000002 -0.000001 0.000003 0.000001 0.000000 0.000001 -0.000002 0.000000 0.000001 -0.000002 0.000000 0.000001 -0.000002 0.000000 0.000001 -0.000002 0.000000 0.000001 -0.000002 0.000000 0.000001 -0.000002 0.000000 0.000001 -0.000002 0.000001 0.000000 -0.000000 0.000000 0.000000 -0.000001 
7.089414 90.353096 4.428015 -10.706895 -27.911577 -0.927198 0.000000 -0.000000 -0.000000 -16.179531 18.581711 11.204621 43.749100 9.040391 2.246431 -16.279022 3.818078 -11.060352 -0.000000 0.000000 -0.000000 0.000000 -0.000000 0.000000 -35.198581 -11.864693 -22.094033 57.518505 0.367006 -9.948350 -7.554458 -2.403744 17.425496 0.000001 0.000002 -0.000000 0.000001 -0.000003 -0.000000 15.705528 5.082441 2.880036 6.265547 1.095417 -0.488610 6.279092 1.038080 -0.445884 -4.308139 1.810601 -0.005098 -4.308132 1.810594 -0.005093 -0.000000 0.000000 0.000000 -4.308132 1.810601 -0.005097 -4.308130 1.810610 -0.005102 -0.000000 -0.000000 0.000001 -0.000000 0.000000 0.000000 2.934042 -4.918866 0.863763 -40.839361 -36.749075 -77.206628 -0.000019 -52.484376 -0.000026 -64.593331 -16.631664 45.622126 -1.540042 3.690186 6.142343 3.939060 7.948700 0.746823 0.000000 -0.000000 -0.000003 2.003740 4.859886 -44.792907 2.003741 4.859872 -44.792896 -0.000001 -0.000001 -0.000000 2.002369 4.858482 -44.776794 2.005099 4.861227 -44.808995 -0.000002 0.000001 0.000001 2.003747 4.859849 -44.792903 2.003738 4.859870 -44.792903 -0.000000 -0.000001 -0.000002 4.872310 7.742525 -44.597474 2.021898 0.790102 -45.160763 0.000000 -0.000003 0.000000 0.000000 0.000002 0.000003 0.000000 0.000002 0.000003 -0.000000 0.000002 0.000003 -0.000000 0.000002 -0.000004 0.000000 0.000001 -0.000004 -0.000000 0.000002 -0.000004 -0.000001 0.000001 -0.000004 1.917774 2.831703 -1.017232 -37.607438 65.421164 66.483231 -0.000018 56.243811 0.000034 -46.070913 1.859229 -28.705755 -1.849243 -3.581800 -6.586140 4.637192 -8.634128 -0.225413 0.000000 -0.000001 0.000001 4.561472 -6.527313 69.863881 4.561457 -6.527316 69.863894 -0.000000 0.000000 0.000001 4.561464 -6.527292 69.863888 4.561452 -6.527308 69.863888 -0.000001 -0.000001 0.000003 4.561461 -6.527281 69.863881 4.561467 -6.527306 69.863894 -0.000000 0.000002 0.000003 4.561476 -6.527327 69.863881 4.561447 -6.527302 69.863888 0.000003 0.000003 0.000002 -0.000002 0.000000 -0.000002 -0.000003 0.000001 -0.000001 -0.000002 -0.000000 -0.000003 0.000002 -0.000003 0.000002 0.000002 -0.000002 0.000001 0.000002 -0.000003 0.000002 0.000002 -0.000002 0.000003 0.000000 0.000000 -0.000000 0.000000 0.000000 -0.000000 0.000000 0.000000 -0.000000 0.000000 0.000000 -0.000000 0.000000 0.000000 -0.000000 0.000000 0.000000 -0.000000 0.000000 0.000000 -0.000000 -0.000000 -0.000001 -0.000000 0.000000 -0.000000 -0.000000 
7.356905 90.900719 4.642477 -10.544132 -27.325306 -0.980997 -0.000001 0.000001 0.000000 -15.521101 18.916665 10.740902 41.876330 9.154121 2.557053 -15.473406 3.051777 -10.768835 0.000000 -0.000000 0.000000 0.000002 -0.000000 -0.000000 -32.444389 -12.756898 -20.660105 54.425860 -2.652966 -9.747034 -9.181909 -2.337627 15.475829 0.000001 0.000001 -0.000000 0.000002 -0.000001 0.000000 15.334840 4.968740 2.486044 6.110046 1.072200 -0.582521 6.123457 1.018477 -0.541697 -4.203847 1.786577 -0.122902 -4.203859 1.786583 -0.122907 0.000001 0.000001 -0.000000 -4.203850 1.786579 -0.122906 -4.203780 1.786598 -0.122909 0.000000 -0.000001 -0.000000 0.000001 0.000001 0.000000 2.949946 -4.953449 1.540747 -40.332335 -37.873836 -76.732920 -0.000014 -51.861353 -0.000002 -66.158496 -16.725740 45.279861 -1.540044 3.690185 6.142349 3.939062 7.948701 0.746828 0.000002 0.000000 -0.000003 2.003739 4.859885 -44.792903 2.003736 4.859870 -44.792896 -0.000000 -0.000002 0.000000 2.002370 4.858482 -44.776794 2.005099 4.861230 -44.808995 -0.000003 0.000000 0.000001 2.003750 4.859848 -44.792900 2.003739 4.859872 -44.792907 0.000000 -0.000001 0.000001 4.872310 7.742524 -44.597471 2.021897 0.790098 -45.160767 -0.000001 -0.000000 0.000002 -0.000001 0.000000 0.000002 -0.000001 0.000000 0.000002 -0.000001 -0.000000 0.000002 -0.000000 0.000000 0.000001 0.000000 -0.000001 0.000001 -0.000000 0.000000 0.000001 -0.000001 0.000001 0.000000 1.994881 3.069045 -0.937244 -36.884135 64.717224 66.632634 0.000021 56.272286 -0.000020 -46.304031 1.849672 -28.518427 -1.849245 -3.581799 -6.586142 4.637189 -8.634128 -0.225413 0.000000 0.000002 0.000003 4.561472 -6.527316 69.863881 4.561455 -6.527315 69.863894 -0.000002 -0.000000 -0.000000 4.561463 -6.527289 69.863888 4.561450 -6.527310 69.863888 -0.000001 -0.000001 0.000001 4.561461 -6.527281 69.863874 4.561463 -6.527305 69.863894 0.000000 -0.000001 0.000001 4.561478 -6.527330 69.863874 4.561450 -6.527307 69.863894 -0.000001 0.000002 -0.000001 0.000002 -0.000001 0.000001 0.000002 0.000000 0.000000 0.000002 -0.000001 -0.000000 0.000001 -0.000003 0.000003 0.000001 -0.000003 0.000003 0.000001 -0.000003 0.000003 0.000001 -0.000003 0.000005 0.000000 0.000001 0.000000 0.000000 0.000001 0.000000 0.000000 0.000001 0.000000 0.000000 0.000001 0.000000 0.000000 0.000001 0.000000 0.000000 0.000001 0.000000 0.000000 0.000001 0.000000 -0.000000 -0.000002 -0.000000 -0.000001 0.000001 0.000000 
7.382343 91.535233 4.743122 -9.937321 -26.580745 -0.766890 0.000001 -0.000001 -0.000000 -15.028966 19.089675 10.251865 39.267225 9.270600 2.928074 -14.075189 2.177922 -10.617832 -0.000000 0.000000 0.000000 0.000001 -0.000000 0.000000 -29.278620 -13.922980 -19.480818 50.599944 -5.603200 -9.063195 -11.282799 -2.435941 14.380777 -0.000000 -0.000001 0.000000 -0.000001 0.000000 -0.000001 14.600607 4.962386 1.971289 5.830614 1.075595 -0.683438 5.843982 1.027810 -0.644587 -4.081890 1.748102 -0.148142 -4.081888 1.748104 -0.148142 0.000000 -0.000001 -0.000000 -4.081815 1.748102 -0.148144 -4.081885 1.748102 -0.148142 0.000000 -0.000001 -0.000001 0.000000 -0.000001 0.000001 3.018838 -5.025184 2.812819 -40.059217 -39.018760 -77.101491 0.000001 -50.864050 -0.000003 -67.846707 -16.932724 44.921338 -1.540042 3.690192 6.142353 3.939061 7.948699 0.746826 0.000003 0.000000 -0.000001 2.003741 4.859890 -44.792903 2.003741 4.859875 -44.792896 0.000002 0.000001 -0.000000 2.002372 4.858487 -44.776787 2.005101 4.861230 -44.808995 -0.000000 0.000000 0.000002 2.003750 4.859855 -44.792900 2.003740 4.859869 -44.792910 -0.000003 0.000001 0.000002 4.872309 7.742531 -44.597474 2.021896 0.790102 -45.160770 0.000002 -0.000005 0.000001 -0.000000 -0.000000 0.000003 -0.000000 -0.000000 0.000003 -0.000000 -0.000000 0.000003 -0.000000 0.000001 -0.000002 0.000000 0.000000 -0.000002 -0.000000 0.000001 -0.000002 -0.000001 0.000002 -0.000002 1.935181 2.951703 0.469560 -32.652040 65.057292 63.330764 0.000042 56.853036 -0.000037 -46.633294 1.711423 -28.325911 -1.849245 -3.581799 -6.586143 4.637193 -8.634130 -0.225415 0.000001 0.000001 -0.000000 4.561471 -6.527314 69.863881 4.561457 -6.527315 69.863894 -0.000001 0.000001 -0.000001 4.561464 -6.527292 69.863888 4.561448 -6.527310 69.863888 0.000002 0.000001 0.000000 4.561461 -6.527281 69.863881 4.561464 -6.527306 69.863894 0.000000 -0.000001 -0.000002 4.561474 -6.527328 69.863874 4.561449 -6.527299 69.863894 0.000000 -0.000000 -0.000003 -0.000001 0.000002 0.000002 -0.000001 0.000001 0.000002 -0.000001 0.000001 0.000001 0.000001 -0.000002 0.000003 0.000001 -0.000001 0.000003 0.000001 -0.000002 0.000003 0.000001 -0.000001 0.000005 -0.000000 0.000001 -0.000000 -0.000000 0.000001 -0.000000 -0.000000 0.000001 -0.000000 -0.000000 0.000001 -0.000000 -0.000000 0.000001 -0.000000 -0.000000 0.000001 -0.000000 -0.000000 0.000001 -0.000000 -0.000000 -0.000000 0.000000 0.000001 -0.000001 -0.000000 
